<svg width="107" height="111" viewBox="0 0 107 111" fill="none" xmlns="http://www.w3.org/2000/svg">
<g clip-path="url(#clip0_2_1385)">
<path d="M79.8283 89.6217C91.1266 79.8077 92.2598 63.6467 90.3143 49.427C89.9885 47.0554 89.9934 44.5371 88.651 42.5469C87.3086 40.5568 84.5315 39.4174 82.5131 40.6399C80.84 41.657 80.2855 43.7939 79.4782 45.5982C78.3951 48.0023 76.6586 50.0499 74.4686 51.5052C73.0387 52.4489 71.2246 53.1237 69.6488 52.4538C67.4893 51.5345 66.9592 48.718 66.7306 46.3513C66.3026 41.9308 65.8762 37.512 65.4514 33.0948C65.2228 30.7281 64.9651 28.3077 64.0215 26.1365C63.078 23.9654 61.2249 22.0437 58.9196 21.6428C56.6142 21.2418 53.9733 22.831 53.7398 25.1977C53.6377 26.1757 53.9392 27.1536 53.9733 28.1561C54.0073 29.1585 53.6668 30.2832 52.7622 30.6499C51.8576 31.0166 50.8168 30.4543 50.0629 29.8333C47.3879 27.6915 45.423 24.7821 43.5651 21.8775C41.7072 18.9729 39.8882 16.0096 37.4174 13.6136C34.9467 11.2176 31.6783 9.48165 28.2835 9.64302C24.8887 9.80439 21.5085 12.264 20.9881 15.6869C20.4677 19.1098 22.7633 22.298 25.1465 24.7869C28.6878 28.47 32.7387 31.6205 37.1743 34.1413C37.9719 34.596 38.8376 35.085 39.2073 35.931C39.8833 37.4566 38.5555 39.1827 37.0575 39.8428C35.3601 40.6106 33.439 40.6252 31.6249 41.036C29.8107 41.4467 27.9042 42.4638 27.3886 44.2828C26.6688 46.8011 28.945 49.1287 31.0947 50.5859C35.4069 53.5037 40.1862 55.654 45.2236 56.9427C47.0231 57.4024 48.9053 57.7691 50.4277 58.8498C51.95 59.9304 53.0103 61.9695 52.3391 63.7396C51.6679 65.5098 49.5522 66.2579 47.704 66.1063C45.8559 65.9547 44.1244 65.1284 42.354 64.6394C38.9884 63.7445 34.83 64.4047 33.045 67.4315C31.8729 69.4217 32.0188 72.0084 32.9332 74.1453C33.8475 76.2821 35.4428 78.0278 37.1062 79.6268C42.9425 85.2111 50.0726 89.4506 57.8496 91.2891C65.6265 93.1277 72.6593 93.1131 79.8429 89.5973" fill="#FFB27D"/>
<path d="M81.1221 100.179C79.7884 93.6315 77.834 87.2274 75.2857 81.0546C72.4599 74.0719 68.7295 66.6735 64.5857 59.0747L61.4827 53.4562C60.4565 51.6128 59.4448 49.7888 58.3408 48.0774C56.2191 44.7703 53.915 41.5853 51.4393 38.5372C49.0999 35.6033 46.775 32.9139 44.5767 30.4103C42.3783 27.9067 40.2821 25.6231 38.2831 23.6183C35.1294 20.4293 31.7269 17.4991 28.1084 14.8556C26.839 13.9168 25.8274 13.2273 25.1367 12.7676L24.3488 12.2444C24.2618 12.1818 24.1689 12.1278 24.0716 12.0831C24.1518 12.155 24.2363 12.2219 24.3245 12.2836L25.0881 12.841C25.7641 13.33 26.7563 14.039 28.0063 14.9925C31.5548 17.6803 34.8974 20.6323 38.0059 23.8236C39.9854 25.8383 42.0622 28.1365 44.246 30.6401C46.4297 33.1437 48.74 35.8527 51.055 38.7769C53.51 41.8226 55.7977 45.0008 57.9079 48.2974C59.0022 50.0138 60.009 51.8279 61.0304 53.6763L64.1334 59.2947C68.2966 66.8887 72.0271 74.2626 74.8674 81.216C77.4312 87.3573 79.4146 93.7276 80.7913 100.242" fill="#FFDFC1"/>
<path d="M58.1511 48.0627C58.23 47.7227 58.2723 47.3751 58.2776 47.026C58.3359 46.361 58.3846 45.3928 58.4283 44.1948C58.5208 41.7988 58.5353 38.4932 58.5353 34.8454C58.5353 31.1975 58.5986 27.8969 58.725 25.5106C58.7834 24.3175 58.8417 23.3542 58.8904 22.6843C58.9353 22.339 58.945 21.99 58.9196 21.6427C58.815 21.9762 58.7497 22.3208 58.725 22.6696C58.6229 23.3297 58.5159 24.293 58.4186 25.4862C58.2095 27.8773 58.1025 31.1877 58.1025 34.8405C58.1025 38.4932 58.1025 41.6863 58.1025 44.185C58.1025 45.3097 58.1025 46.2583 58.1025 47.0211C58.082 47.3691 58.0983 47.7182 58.1511 48.0627V48.0627Z" fill="#FFDFC1"/>
<path d="M27.2767 45.5102C27.6845 45.5468 28.0946 45.5468 28.5024 45.5102C29.2854 45.5102 30.4186 45.476 31.8242 45.5102C34.6257 45.5102 38.502 45.6814 42.7674 46.0383C47.0328 46.3953 50.8848 46.9038 53.6571 47.3439C55.0481 47.5542 56.1667 47.7547 56.94 47.8867C57.3378 47.9804 57.7431 48.0376 58.1511 48.0578C57.7713 47.9039 57.3769 47.7893 56.9741 47.7155C56.2056 47.5297 55.0919 47.2852 53.7057 47.031C50.9383 46.5126 47.0863 45.965 42.8015 45.5933C39.1497 45.2768 35.4842 45.1478 31.8194 45.207C30.4138 45.2315 29.2757 45.2999 28.4926 45.3635C28.0837 45.3744 27.6766 45.4236 27.2767 45.5102V45.5102Z" fill="#FFDFC1"/>
<path d="M74.7994 80.5314C74.8748 80.4101 74.9321 80.2783 74.9696 80.1402C75.0766 79.8273 75.2128 79.4459 75.3733 78.9862C75.7186 77.9789 76.1855 76.5119 76.7351 74.6929C77.8391 71.05 79.2058 65.9743 80.626 60.3509C82.0462 54.7276 83.3788 49.647 84.4051 45.9894C84.8914 44.2095 85.3243 42.7474 85.6307 41.657C85.762 41.168 85.869 40.7963 85.9566 40.4785C86.0055 40.3432 86.035 40.2016 86.0441 40.058C85.9687 40.1793 85.9113 40.3111 85.8739 40.4492C85.7669 40.7621 85.6307 41.1435 85.4702 41.6032C85.1249 42.6105 84.658 44.0775 84.1084 45.8965C83.0043 49.5394 81.6377 54.6151 80.2175 60.2385C78.7973 65.8618 77.4646 70.9424 76.4384 74.6049C75.9521 76.3799 75.5192 77.8469 75.2128 78.9324C75.0815 79.4214 74.9745 79.7931 74.8869 80.1109C74.838 80.2462 74.8085 80.3878 74.7994 80.5314V80.5314Z" fill="#FFDFC1"/>
<path d="M33.2299 71.6661C33.3611 71.7265 33.5004 71.7677 33.6433 71.7883L34.8543 72.0622L39.3094 73.0401C43.069 73.847 48.2536 75.0254 53.9781 76.3359C59.7026 77.6464 64.9019 78.7808 68.6809 79.5045C70.568 79.8713 72.0855 80.1549 73.1603 80.326L74.3859 80.5167C74.5274 80.552 74.6736 80.5635 74.8188 80.551C74.6846 80.494 74.5442 80.4529 74.4005 80.4287L73.1944 80.1549L68.7393 79.2014C64.9797 78.3896 59.795 77.2112 54.0705 75.9007C48.346 74.5902 43.1468 73.4558 39.3678 72.7321C37.4807 72.3653 35.9632 72.0866 34.8835 71.9106L33.6627 71.7199C33.5217 71.6813 33.376 71.6632 33.2299 71.6661Z" fill="#FFDFC1"/>
</g>
<defs>
<clipPath id="clip0_2_1385">
<rect width="107" height="111" fill="white"/>
</clipPath>
</defs>
</svg>
