<svg width="313" height="232" viewBox="0 0 313 232" fill="none" xmlns="http://www.w3.org/2000/svg">
<path d="M146.824 243.204C130.056 243.388 113.69 243.795 96.585 244.27C95.9586 243.079 95.6685 242.276 95.6685 242.276C86.0434 232.218 87.7172 233.719 65.996 237.525C44.273 241.322 49.3662 212.991 30.9067 207.589C12.2579 202.143 -7.39543 186.808 5.17836 171.872C17.8048 156.898 30.5369 162.283 45.2457 164.646C55.2758 166.254 70.5989 150.116 84.3247 148.325C92.8799 147.215 97.8371 151.87 102.144 159.257C102.144 159.257 102.146 159.257 102.144 159.259C110.968 174.548 117.244 177.856 125.13 178.873L125.132 178.873C127.77 179.212 130.419 179.286 134.181 179.513C140.166 179.89 152.297 181.313 156.748 185.35C176.274 203.036 167.61 227.748 146.824 243.204Z" fill="#CCD39C"/>
<path d="M143.557 220.887L144.333 219.884C143.893 219.539 99.2346 185.285 2.21204 176.174L2.09561 177.442C98.7544 186.519 143.121 220.544 143.557 220.887Z" fill="#C2C68E"/>
<path d="M85.7083 178.864C99.3296 168.151 102.223 159.092 102.339 158.711L101.13 158.335C101.102 158.426 98.2028 167.423 84.9274 177.861L85.7083 178.864Z" fill="#C2C68E"/>
<path d="M82.5403 192.407C86.5836 186.27 86.8804 177.039 83.3936 165.711C80.7837 157.227 76.9339 150.448 76.8947 150.38L75.7989 151.014C75.9501 151.279 90.7831 177.594 81.4842 191.705L82.5403 192.407Z" fill="#C2C68E"/>
<path d="M57.1174 188.41C58.732 187.232 59.6139 186.456 59.6534 186.42L58.8124 185.47C58.6281 185.635 40.0306 201.98 14.427 199.401L14.3012 200.667C34.9348 202.745 51.1028 192.798 57.1174 188.41Z" fill="#C2C68E"/>
<path d="M42.484 216.879C48.7945 210.713 50.9191 204.26 51.5908 199.932C52.3219 195.22 51.5552 192 51.5219 191.864L50.2941 192.168C50.3238 192.293 53.1575 204.679 41.6033 215.966L42.484 216.879Z" fill="#C2C68E"/>
<g opacity="0.6">
<path d="M206.303 209.716C206.303 209.716 261.519 15.8116 313.226 32.8775C364.933 49.9435 247.625 154.554 233.33 211.514L206.303 209.716Z" fill="#849980"/>
</g>
<path d="M244.976 199.662C244.976 199.662 312.156 83.5254 349.033 103.474C385.913 123.423 283.465 171.028 265.184 205.474L244.976 199.662Z" fill="#CCD39C"/>
<path d="M256.252 203.014C268.446 178.995 289.798 157.321 305.561 143.371C322.652 128.247 337.031 118.692 337.174 118.598L336.586 117.697C336.441 117.793 322.001 127.387 304.855 142.562C289.02 156.575 267.57 178.354 255.299 202.524L256.252 203.014Z" fill="#C2C68E"/>
<path d="M241.869 61.9686C242.369 56.888 244.121 55.5364 246.1 55.7336C248.078 55.9308 249.534 57.6027 249.034 62.6833C248.125 71.9388 244.104 76.0543 244.104 76.0543C244.104 76.0543 240.947 71.358 241.869 61.9686Z" fill="#ACC9C5"/>
<path d="M149.838 34.2914C149.838 34.2914 153.091 63.1448 138.547 63.8804C101.395 65.7613 80.8735 92.3542 102.533 96.5579C112.168 98.4284 98.4984 109.375 78.1614 120.98C54.159 134.677 54.9833 178.278 96.1116 183.429C137.238 188.581 164.644 157.081 186.104 171.809C207.563 186.537 243.639 154.91 262.014 156.084C280.388 157.258 295.287 159.954 300.683 144.336C306.078 128.719 256.59 124.794 259.207 99.4538C261.825 74.1141 214.796 71.4108 225.155 66.8819C262.351 50.6233 215.076 38.1571 202.414 18.9895C193.885 6.08436 149.838 34.2914 149.838 34.2914Z" fill="#331832"/>
<path d="M271.032 248.675C203.575 245.863 205.194 242.206 135.92 243.352C135.067 207.2 137.131 155.074 150.306 121.235C146.944 119.011 130.68 108.272 127.811 106.379C127.811 106.36 128.257 105.693 128.289 105.659C129.817 103.517 135.196 96.9576 147.192 91.2277C147.972 91.2302 162.531 82.1369 194.667 81.6044C200.188 81.5207 205.662 82.1862 211.09 83.2103C211.232 83.2825 219.174 84.6113 223.162 85.8837C237.191 90.3324 246.679 94.9437 253.02 98.8782C262.725 104.9 264.878 109.091 264.96 109.174L264.96 109.176L264.958 109.176C264.957 109.418 258.182 123.03 248.637 127.386C248.923 128.261 252.823 141.187 252.823 141.269C263.213 176.631 270.738 211.95 271.032 248.675Z" fill="#62739E"/>
<path d="M165.708 120.622C166.803 117.679 159.213 112.095 148.754 108.151C138.296 104.206 128.93 103.394 127.835 106.337C126.74 109.28 134.331 114.863 144.789 118.808C155.247 122.752 164.613 123.564 165.708 120.622Z" fill="#331832"/>
<path d="M204.751 31.477C204.751 31.477 204.433 35.5218 207.882 43.1755C212.929 54.3743 200.387 61.3127 196.478 58.4982C195.995 58.1492 193.515 38.1573 193.515 38.1573L197.376 34.9605L204.751 31.477Z" fill="#331832"/>
<path d="M188.599 34.4408C188.599 34.4408 200.991 44.1119 199.057 56.2543C199.057 56.2543 204.205 48.4949 203.954 45.934C203.704 43.3732 200.66 34.456 200.66 34.456L188.599 34.4408Z" fill="#331832"/>
<path d="M194.042 47.5062C193.832 47.5055 193.651 47.3539 193.616 47.1367C193.579 46.9006 193.739 46.6764 193.976 46.6413C194.004 46.6377 196.664 46.1933 197.639 44.4577C197.756 44.2467 198.019 44.1758 198.229 44.2916C198.437 44.4113 198.509 44.6758 198.392 44.8868C197.209 46.9917 194.236 47.4804 194.11 47.5026C194.087 47.5045 194.063 47.5063 194.042 47.5062Z" fill="#EC865C"/>
<path d="M211.165 83.2225C207.867 82.364 204.521 81.1598 202.03 77.1511L193.997 61.9212L191.964 60.9479L178.649 39.5157L183.977 63.0342L187.177 77.1495C187.177 77.1495 188.162 80.787 182.426 82.1595C182.426 82.1595 178.266 94.2795 185.868 95.1692C198.257 96.6221 211.189 83.2283 211.165 83.2225Z" fill="#FFB27D"/>
<path d="M194.19 64.197C194.206 64.3292 194.217 64.4614 194.226 64.5935C194.832 72.3474 187.232 77.1857 187.232 77.1857L187.176 77.1515L183.976 63.0363C186.327 61.7338 189.729 60.2403 191.961 60.9481C193.128 61.3182 193.974 62.2895 194.19 64.197Z" fill="#E9845C"/>
<path d="M182.362 71.0524C175.796 72.0654 169.357 69.4389 164.433 64.4367C162.839 62.8192 161.406 60.953 160.177 58.8798C158.116 55.4012 156.636 51.3449 155.96 46.9155C153.637 31.6913 161.693 17.8133 173.948 15.9204C186.206 14.0275 198.026 24.8331 200.349 40.0573C202.673 55.2815 194.619 69.1576 182.362 71.0524Z" fill="#FFB27D"/>
<path d="M200.067 42.8638C201.983 39.8865 201.628 36.2295 199.276 34.6956C196.923 33.1617 193.464 34.3318 191.548 37.3091C189.633 40.2864 189.988 43.9434 192.34 45.4773C194.692 47.0112 198.152 45.8411 200.067 42.8638Z" fill="#FFB27D"/>
<path d="M169.243 61.746C169.243 61.746 176.625 62.0763 184.024 56.8981C184.024 56.8981 184.114 63.6511 177.744 65.0968C172.328 66.3267 169.243 61.746 169.243 61.746Z" fill="white"/>
<path d="M176.052 44.0833C175.898 44.0658 175.754 43.9785 175.668 43.8329C175.524 43.5889 175.604 43.2739 175.846 43.1293C175.989 43.0449 179.119 40.7596 182.605 43.5856C182.826 43.7638 182.87 44.0829 182.697 44.307C182.524 44.5311 182.237 44.5207 181.98 44.3991C179.422 43.1882 176.485 43.945 176.367 44.0145C176.269 44.0746 176.158 44.0969 176.052 44.0833Z" fill="#080435"/>
<path d="M158.438 49.5183C158.289 49.5612 158.123 49.5361 157.99 49.4337C157.765 49.2631 157.719 48.942 157.889 48.7142C157.989 48.5805 160.017 45.2683 164.311 46.5453C164.581 46.6255 164.743 46.9035 164.669 47.177C164.595 47.4505 164.323 47.5515 164.042 47.5374C161.218 47.3998 158.789 49.223 158.705 49.3341C158.635 49.4264 158.539 49.4884 158.438 49.5183Z" fill="#080435"/>
<path d="M178.341 50.7726C177.094 50.7685 176.362 50.3394 176.302 50.3014C175.971 50.1002 175.865 49.6657 176.065 49.3341C176.265 49.0025 176.689 48.8944 177.019 49.0937C177.123 49.1526 179.286 50.3133 182.828 47.3953C183.127 47.1528 183.566 47.1958 183.812 47.493C184.057 47.7958 184.012 48.2393 183.713 48.4856C181.487 50.3207 179.637 50.777 178.341 50.7726Z" fill="#080435"/>
<path d="M163.235 54.9999C161.988 54.9957 161.256 54.5666 161.196 54.5286C160.865 54.3274 160.759 53.8929 160.959 53.5613C161.157 53.2297 161.579 53.1197 161.914 53.321C162.025 53.3836 164.187 54.5368 167.724 51.6225C168.021 51.38 168.461 51.423 168.708 51.7202C168.953 52.0231 168.908 52.4666 168.609 52.7129C166.381 54.5479 164.531 55.0042 163.235 54.9999Z" fill="#080435"/>
<path d="M264.96 109.169C264.96 109.169 257.646 122.791 248.636 127.379L254.563 149.538L235.386 144.444L236.665 119.694L259.097 106.886L264.96 109.169Z" fill="#92A5E6"/>
<path d="M130.344 108.051C130.344 108.051 79.8849 165.627 86.6891 179.76C93.4952 193.892 119.141 203.458 143.104 168.514C157.411 147.65 155.164 105.803 130.344 108.051Z" fill="#FFB27D"/>
<path d="M159.594 29.2652C159.594 29.2652 164.913 37.3325 181.069 34.3896C192.869 32.2404 200.439 36.7376 201.277 46.3796C202.115 56.0217 243.01 49.815 243.01 49.815C243.01 49.815 252.19 43.789 226.347 33.5417C215.308 29.1653 203.392 -10.5562 161.372 4.34595C137.575 12.7856 131.216 33.6385 141.561 45.0996C154.079 58.9654 132.238 64.4476 132.238 64.4476L157.728 66.5042C157.728 66.5042 152.357 55.3106 155.962 46.9159C159.568 38.5174 154.863 36.7746 159.594 29.2652Z" fill="#331832"/>
<path d="M275.596 125.694C275.596 125.694 295.808 153.759 295.008 164.778C294.208 175.797 262.034 148.726 262.034 148.726L275.596 125.694Z" fill="#FFB27D"/>
<path d="M186.512 109.792C186.512 109.792 155.058 78.2212 121.428 97.1752C86.2433 117.004 113.96 172.98 151.999 195.992C190.039 219.004 199.872 228.357 207.981 226.083C216.089 223.808 324.843 125.664 283.425 71.3629C253.706 32.3994 201.852 42.6392 186.512 109.792Z" fill="#EF8062"/>
<path d="M271.575 81.7708C271.575 81.7708 267.544 65.413 249.293 61.847C231.04 58.281 222.411 66.872 226.304 72.2179C230.198 77.5656 242.913 72.573 248.466 80.2256C254.018 87.88 273.033 96.4701 271.575 81.7708Z" fill="#FFC9BC"/>
<g opacity="0.3">
<path d="M139.007 137.269C136.163 133.172 125.836 111.538 118.878 114.85C109.49 119.318 115.164 148.942 127.627 164.758C140.09 180.574 184.991 220.14 204.064 217.202C213.704 215.716 235.366 197.274 234.323 185.511C231.182 150.089 190.711 183.732 181.567 169.399C172.424 155.067 147.272 149.169 139.007 137.269Z" fill="#D05F47"/>
</g>
<path d="M172.014 176.084C172.014 176.084 132.298 163.726 114.049 159.862C97.6961 156.399 85.6158 162.224 86.6893 179.76C87.4847 192.739 106.316 198.289 134.203 200.164C162.09 202.04 191 198.922 191 198.922C192.463 194.294 172.014 176.084 172.014 176.084Z" fill="#FFB27D"/>
<path d="M189.09 198.879C178.87 199.03 166.703 196.219 166.703 196.219C166.703 196.219 162.474 178.961 163.865 177.283C169.23 170.807 179.437 165.76 182.981 162.2C184.518 160.657 190.041 155.829 191.764 157.169C193.263 158.335 190.678 164.281 189.113 166.961C203.199 164.468 224.87 167.208 195.728 174.6C195.732 174.615 195.735 174.632 195.739 174.649C198.754 174.177 219.335 171.651 218.383 175.966C217.544 179.773 201.809 182.056 196.857 182.888C196.859 182.935 196.862 182.982 196.864 183.029C201.97 182.627 217.346 180.893 215.388 184.249C212.932 188.461 196.892 192.476 196.892 192.476C196.892 192.476 213.607 189.105 211.364 194.317C209.836 197.873 195.849 198.476 191 198.921C190.295 198.985 189.665 198.964 189.09 198.879Z" fill="#FFB27D"/>
<path d="M196.312 152.413C205.57 156.772 217.814 159.235 217.814 159.235C217.814 159.235 228.699 145.243 228.115 143.138C225.86 135.015 218.608 126.197 216.825 121.487C216.051 119.445 212.981 112.76 210.863 113.272C209.022 113.717 208.954 120.205 209.291 123.297C197.459 115.206 176.581 108.755 200.147 127.532C200.137 127.545 200.126 127.558 200.117 127.571C197.558 125.896 179.818 115.093 178.927 119.419C178.14 123.238 191.561 131.819 195.74 134.621C195.719 134.663 195.697 134.706 195.676 134.748C191.183 132.271 177.867 124.341 178.284 128.209C178.809 133.065 191.8 143.351 191.8 143.351C191.8 143.351 177.93 133.373 177.852 139.052C177.799 142.926 190.306 149.252 194.55 151.661C195.169 152.011 195.754 152.252 196.312 152.413Z" fill="#FFB27D"/>
<path d="M115.612 160.496C115.59 160.496 115.569 160.494 115.545 160.489C110.217 159.228 103.225 160.109 103.156 160.118C102.985 160.134 102.849 160.022 102.829 159.864C102.809 159.702 102.922 159.555 103.083 159.533C103.152 159.522 110.244 158.631 115.682 159.913C115.839 159.952 115.936 160.111 115.9 160.269C115.868 160.405 115.745 160.497 115.612 160.496Z" fill="#E9845C"/>
<path d="M221.173 138.673C221.173 138.673 259.544 140.244 275.356 145.683C290.858 151.017 300.61 166.07 291.475 174.608C282.009 183.456 267.829 180.638 241.632 170.831C215.435 161.025 202.953 155.098 202.953 155.098C203.505 150.274 221.173 138.673 221.173 138.673Z" fill="#FFB27D"/>
<path d="M285.225 151.189C285.16 151.188 285.092 151.165 285.038 151.12C282.412 148.923 278.071 147.062 278.028 147.045C277.88 146.981 277.809 146.807 277.873 146.658C277.937 146.509 278.108 146.436 278.258 146.5C278.438 146.578 282.721 148.414 285.415 150.668C285.538 150.772 285.556 150.957 285.453 151.082C285.392 151.153 285.308 151.189 285.225 151.189Z" fill="#E9845C"/>
<g opacity="0.7">
<path d="M184.628 52.4694C184.388 49.2819 187.175 48.2433 189.098 47.9986C192.107 47.616 193.709 49.9321 193.703 51.8822C193.693 54.799 191.744 56.8654 189.294 56.4665C187.381 56.1543 184.842 55.3246 184.628 52.4694Z" fill="#EF8062"/>
</g>
<g opacity="0.5">
<path d="M164.656 64.3727C164.583 64.397 164.511 64.4194 164.435 64.438C162.84 62.8204 161.407 60.9542 160.178 58.881C160.365 58.5927 160.583 58.3537 160.793 58.1618C162.17 56.9336 164.019 58.1461 164.883 59.5932C166.176 61.7554 166.092 63.8998 164.656 64.3727Z" fill="#EF8062"/>
</g>
</svg>
